<svg xmlns="http://www.w3.org/2000/svg" width="880" height="880"><defs><clipPath id="a" clipPathUnits="userSpaceOnUse"><path d="M0 660h660V0H0Z"/></clipPath></defs><g clip-path="url(#a)" transform="matrix(1.33333 0 0 -1.33333 0 880)"><path d="m0 0 15.208-15.208c10.494-10.494 10.494-27.666 0-38.16L-5.255-73.83c-10.493-10.494-27.664-10.494-38.159 0l-15.208 15.207c-10.494 10.494-10.494 27.666 0 38.16L-38.159 0C-27.664 10.493-10.495 10.493 0 0" style="fill:#75870c;fill-opacity:1;fill-rule:evenodd;stroke:none" transform="translate(163.92 189.863)"/><path d="M0 0a26.996 26.996 0 0 0-2.529-2.921l-20.463-20.462c-10.493-10.494-27.664-10.494-38.159 0L-76.359-8.176l16.656-8.157c11.552-5.659 25.058-2.756 33.267 7.149l6.23 7.519-39.008 48.793z" style="fill:#5e6e06;fill-opacity:1;fill-rule:evenodd;stroke:none" transform="translate(181.657 139.416)"/><path d="M0 0c59.424-59.424 59.424-156.664 0-216.086l-146.94-146.94c-59.422-59.423-156.662-59.423-216.085 0-59.426 59.424-59.426 156.663 0 216.087L-216.087 0C-156.663 59.424-59.425 59.424 0 0" style="fill:#fb0;fill-opacity:1;fill-rule:evenodd;stroke:none" transform="translate(512.152 522.886)"/><path d="M0 0a152.395 152.395 0 0 0-9.736-10.72l-146.941-146.939c-59.422-59.423-156.662-59.423-216.085 0a153.527 153.527 0 0 0-5.907 6.259l1.083 1.084c25.314 25.312 64.269 31.242 95.974 14.851 30.85-15.951 66.775-10.372 91.336 14.187l95.282 95.284C-69.317-.318-32.917 8.342 0 0" style="fill:#f5ac00;fill-opacity:1;fill-rule:evenodd;stroke:none" transform="translate(521.889 317.52)"/><path d="M0 0a152.33 152.33 0 0 0-6.26 5.907c-59.426 59.424-59.426 156.663 0 216.087l146.939 146.939c3.449 3.449 7.03 6.69 10.718 9.738 8.342-32.918-.317-69.318-25.994-94.995L30.12 188.393C5.561 163.833-.017 127.907 15.934 97.057 32.324 65.353 26.395 26.396 1.081 1.085Z" style="fill:#f5ac00;fill-opacity:1;fill-rule:evenodd;stroke:none" transform="translate(155.387 153.953)"/><path d="m0 0 34.059 34.059L3.2 62.817l-28.758 30.859-34.058-34.059 30.926-28.69Zm-51.101-51.1L-8.19-8.19-39.116 20.5l-28.69 30.927-42.912-42.911 30.927-28.69zm-51.099-51.102 42.909 42.912-30.927 28.689-28.69 30.927-42.909-42.909 30.926-28.692zm-51.1-51.099 42.909 42.91-30.927 28.69-28.691 30.927-42.909-42.911 30.928-28.69zm-51.101-51.1 42.91 42.909-30.927 28.691-28.69 30.926-42.91-42.911 30.927-28.69zm-42.249-42.25 34.059 34.059-30.927 28.69-28.69 30.926-34.059-34.059 30.86-28.756zm138.196 351.573 7.673-7.118L-72.7 71.753l27.574 27.573a59.714 59.714 0 0 0 8.03 6.731l-14.576 15.64-9.712 10.422c-16.033-3.393-30.853-10.981-42.76-22.886zm-51.1-51.101 7.671-7.117 28.083-26.052 43.857 43.857-26.051 28.082-7.117 7.673zm-51.1-51.1 7.671-7.117 28.084-26.053 43.855 43.858-26.051 28.082-7.118 7.672zm-51.101-51.1 7.673-7.118L-226-81.549l43.856 43.857-26.05 28.083-7.118 7.672zm-51.102-51.101 7.674-7.118 28.081-26.051 43.857 43.857-26.051 28.083-7.117 7.671zm-31.854-51.728 10.423-9.712 15.639-14.576a59.462 59.462 0 0 0 6.732 8.03l27.572 27.574-26.052 28.081-7.118 7.674-4.31-4.312c-11.904-11.905-19.491-26.724-22.886-42.759M45.306-48.837l4.31 4.311C61.521-32.622 69.109-17.801 72.502-1.768L62.081 7.945 46.44 22.52a59.768 59.768 0 0 0-6.73-8.03L12.136-13.083l26.05-28.082zM-5.796-99.938l46.443 46.442-7.672 7.119L4.892-20.326l-43.856-43.857 26.051-28.082zm-51.1-51.1 46.443 46.442-7.672 7.118-28.083 26.052-43.857-43.858 26.052-28.082zm-51.1-51.101 46.442 46.442-7.673 7.118-28.082 26.052-43.856-43.858 26.051-28.081zm-51.102-51.1 46.443 46.443-7.671 7.117-28.083 26.051-43.857-43.857 26.052-28.083zm-51.725-31.855c16.033 3.393 30.851 10.981 42.758 22.886l4.31 4.31-7.671 7.118-28.083 26.052-27.572-27.573a59.73 59.73 0 0 0-8.032-6.731l14.576-15.64zM68.455 53.793C75.9 35.933 79.141 17.142 78.063-.896l11.565-12.409a153.236 153.236 0 0 0-.326-4.118L77.587-6.506c-2.167-19.566-9.534-38.017-22.253-53.141l15.842-17.078a149.248 149.248 0 0 0-1.888-3.341L51.683-63.733a98.71 98.71 0 0 0-1.832-1.891l-45.38-45.38 19.728-21.267-2.32-2.319L.612-114.861l-47.243-47.244 19.731-21.267-2.321-2.32-21.267 19.731-47.242-47.244 19.729-21.266-2.32-2.321-21.268 19.73-45.38-45.381c-.621-.621-1.254-1.23-1.889-1.833l16.333-17.604a151.624 151.624 0 0 0-3.342-1.889l-17.078 15.844c-15.123-12.72-33.574-20.085-53.142-22.253l10.919-11.715a149.223 149.223 0 0 0-4.118-.325l-12.409 11.563c-18.038-1.078-36.83 2.161-54.691 9.609 16.501-5.732 33.663-7.462 49.829-5.079l-7.989 7.445-16.925 15.775c-19.821-10.426-44.368-9.017-62.913 4.227 16.217-9.911 37.816-7.875 51.817 6.111l-30.858 28.758-28.758 30.858c-13.986-14.002-16.023-35.599-6.112-51.816-13.244 18.545-14.652 43.091-4.228 62.911l-15.774 16.927-7.443 7.989c-2.385-16.166-.655-33.328 5.076-49.829-7.445 17.86-10.684 36.652-9.607 54.689l-11.565 12.411c.091 1.373.198 2.748.326 4.118l11.714-10.917c2.169 19.564 9.535 38.015 22.253 53.139l-15.842 17.078a157.018 157.018 0 0 0 1.888 3.341l17.605-16.333c.602.637 1.21 1.269 1.833 1.891l45.381 45.381-19.73 21.266 2.319 2.32 21.267-19.73 47.244 47.244-19.73 21.267 2.321 2.319 21.266-19.729 47.242 47.243-19.729 21.267 2.321 2.32 21.268-19.729 45.38 45.381a95.71 95.71 0 0 0 1.889 1.831l-16.332 17.606c1.108.645 2.221 1.273 3.341 1.888l17.078-15.844c15.122 12.721 33.574 20.086 53.141 22.255l-10.919 11.715c1.371.128 2.746.234 4.119.326l12.409-11.566c18.038 1.079 36.829-2.161 54.69-9.607-16.501 5.731-33.661 7.462-49.826 5.078l7.986-7.445 16.927-15.774c19.821 10.427 44.366 9.017 62.912-4.226-16.218 9.909-37.817 7.873-51.818-6.114l30.86-28.756 28.757-30.86c13.986 14.002 16.022 35.6 6.113 51.817 13.243-18.545 14.653-43.09 4.226-62.912l15.774-16.926 7.445-7.988c2.383 16.165.653 33.327-5.078 49.827" style="fill:#e39400;fill-opacity:1;fill-rule:evenodd;stroke:none" transform="translate(466.743 417.86)"/><path d="M0 0c36.419-36.417 36.419-96.009 0-132.427l-118.852-118.852c-36.418-36.417-96.008-36.417-132.425 0-36.418 36.418-36.418 96.009 0 132.426L-132.426 0C-96.009 36.417-36.417 36.417 0 0" style="fill:#fc0;fill-opacity:1;fill-rule:evenodd;stroke:none" transform="translate(465.255 518.42)"/><path d="M0 0c2.318 20.298 11.212 39.966 26.695 55.447l94.972 94.974c-2.814-20.84-12.196-40.948-28.159-56.912z" style="fill:#fb0;fill-opacity:1;fill-rule:evenodd;stroke:none" transform="translate(187.282 344.12)"/><path d="m0 0 42.911 42.91L11.984 71.6l-28.689 30.927-42.912-42.911 30.927-28.69Zm-51.1-51.102L-8.19-8.19l-30.927 28.689-28.691 30.927-42.909-42.909 30.927-28.692Zm-51.099-51.099 42.909 42.91-30.928 28.69-28.69 30.927-42.909-42.911 30.927-28.69zm-6.254 207.122 7.671-7.117 28.083-26.051 43.856 43.856-26.051 28.082-7.117 7.673zm-51.101-51.1 7.672-7.117 28.083-26.053 43.856 43.858-26.051 28.082-7.118 7.672zm-51.1-51.1 7.673-7.118 28.082-26.052 43.856 43.857-26.051 28.083-7.118 7.672zM73.783 109.63a94.413 94.413 0 0 0 2.824-16.502l-22.306 20.789-28.758 30.859-34.059-34.059 30.927-28.69L51.101 51.1l25.402 25.403c-1.195-12.627-4.932-25.053-11.206-36.424l-2.061-2.061.544-.585a93.015 93.015 0 0 0-5.757-8.542l-2.03 1.883-43.856-43.857 2.482-2.677-7.048-7.051-2.678 2.485-43.858-43.858 2.485-2.676-7.05-7.051-2.678 2.484-43.856-43.858.005-.006c-11.379-6.281-23.814-10.021-36.45-11.219l16.118 16.118-30.926 28.691-28.691 30.927-39.689-39.691a92.467 92.467 0 0 0-9.669 15.551l37.221 37.222-26.05 28.083-7.117 7.672-11.548-11.547c3.66 16.995 12.055 33.151 25.195 46.291l118.852 118.852c15.945 15.945 36.333 24.909 57.273 26.89-10.144-4.138-19.482-10.197-27.503-18.216l-4.31-4.311 7.672-7.118 28.081-26.051 27.575 27.573a59.652 59.652 0 0 0 8.03 6.731l-14.576 15.64-5.169 5.548a94.223 94.223 0 0 0 9.143-1.51l.035-.03 16.926-15.774a59.654 59.654 0 0 0 11.42 4.57 92.807 92.807 0 0 0 10.307-7.197 41.723 41.723 0 0 1-10.632-7.713l30.859-28.756z" style="fill:#f5ac00;fill-opacity:1;fill-rule:evenodd;stroke:none" transform="translate(415.643 366.76)"/><path d="m0 0-3.684 3.971-11.548-11.547C-11.571 9.419-3.176 25.575 9.964 38.715l94.971 94.973a99.438 99.438 0 0 0-9.116-30.215L52.075 59.729l3.969-3.683-4.943-4.946-3.684 3.971L.975 8.629l3.969-3.684Z" style="fill:#e39400;fill-opacity:1;fill-rule:evenodd;stroke:none" transform="translate(204.014 360.853)"/><path d="m0 0-20.042 21.604-21.604 20.042 15.422 15.422 20.089-21.557 21.557-20.089Zm-51.102-51.102-20.042 21.606-21.603 20.041 24.253 24.253 20.041-21.604 21.604-20.042zm-51.099-51.099 24.251 24.253-21.603 20.042-20.041 21.603-24.254-24.253 21.605-20.041zm-51.101-51.1-20.041 21.604-21.605 20.042 24.253 24.252 20.043-21.604 21.602-20.042zm-51.1-51.101 24.253 24.253-21.605 20.042-20.042 21.603-24.253-24.253 21.605-20.041zm-42.27-42.27-20.091 21.558-21.556 20.089 15.423 15.421 20.041-21.604 21.605-20.041zM-90.218 86.704l16.845-15.625 17.646 17.647-10.152 10.892c-8.888-2.732-17.127-7.04-24.339-12.914m-51.367-50.853 17.11-15.872 26.548 26.546-15.872 17.11zm-51.1-51.101 17.111-15.872 26.547 26.547-15.871 17.11zm-51.099-51.101 17.108-15.872 26.547 26.547L-216-38.565zm-51.101-51.1 17.109-15.872 26.547 26.547-15.873 17.109zm-35.983-47.921 10.891-10.15 17.647 17.646-15.624 16.844c-5.875-7.213-10.183-15.452-12.914-24.34M45.059-48.571c5.873 7.213 10.18 15.45 12.914 24.339L47.079-14.081 29.433-31.727ZM-5.796-99.938l27.785 27.786L4.879-56.28l-26.548-26.549Zm-51.101-51.099 27.785 27.784-17.111 15.872-26.546-26.548zm-51.1-51.102 27.786 27.785-17.111 15.872-26.546-26.546zm-51.1-51.101 27.783 27.786-17.108 15.872-26.548-26.548zm-47.921-35.982c8.889 2.733 17.127 7.04 24.338 12.914l-16.842 15.625-17.647-17.647zM31.224 72.869l-6.018 3.678C17.7 81.133 8.684 82.002.66 79.407L19.864 61.51l17.897-19.204c2.593 8.024 1.726 17.04-2.861 24.546zm-304.781-341.88-19.205 17.898-17.896 19.204c-2.594-8.025-1.727-17.04 2.861-24.546l3.677-6.018 6.018-3.678c7.507-4.587 16.523-5.454 24.545-2.86" style="fill:#ffe045;fill-opacity:1;fill-rule:evenodd;stroke:none" transform="translate(473.447 442.535)"/><path d="M0 0a76.532 76.532 0 0 0-17.216.483l-9.611-9.613 10.151-10.891C-7.787-17.289.451-12.982 7.662-7.108zm-83.215.189-16.58 15.452a82.304 82.304 0 0 1-16.006-5.605l2.023-3.309 6.018-3.678c7.507-4.587 16.523-5.454 24.545-2.86" style="fill:#f5d329;fill-opacity:1;fill-rule:evenodd;stroke:none" transform="translate(283.106 173.335)"/><path d="M0 0a76.527 76.527 0 0 1 .48-17.216l-9.611-9.611-10.891 10.15C-17.291-7.789-12.983.45-7.108 7.663zm15.641-99.796L.187-83.214c-2.593-8.024-1.726-17.04 2.862-24.546l3.677-6.017 3.311-2.023a82.415 82.415 0 0 1 5.604 16.004" style="fill:#f5d329;fill-opacity:1;fill-rule:evenodd;stroke:none" transform="translate(162.602 293.84)"/><path d="m0 0 .055.069-.04-.042Z" style="fill:#fff;fill-opacity:1;fill-rule:evenodd;stroke:none" transform="translate(168.3 345.3)"/><path d="m0 0 1.83-1.83c35.403-35.403 35.403-93.152 0-128.555l-95.284-95.284c-27.207-27.207-33.415-67.192-15.745-101.37 14.329-27.715 9.899-62.748-13.291-85.937l-1.26-1.261-29.447 29.447c-51.289 51.289-51.289 134.954 0 186.244L-5.777-51.127C7.602-37.745 10.239-17.748.782-1.356z" style="fill:#94ab13;fill-opacity:1;fill-rule:evenodd;stroke:none" transform="translate(272.877 574.097)"/><path d="M0 0c-9.027-22.691-8.01-48.483 3.95-71.618 14.329-27.715 9.9-62.748-13.291-85.938l-1.259-1.26-29.448 29.447C-76.949-92.468-87.3-38.808-71.101 7.495c-3.651-47.162 16.192-80.704 43.737-109.752 10.734-11.319 23.237-5.12 20.048 10.151C-12.822-65.739-28.684-31.703-.003.002z" style="fill:#82970a;fill-opacity:1;fill-rule:evenodd;stroke:none" transform="translate(159.727 318.677)"/><path d="M0 0c-.99-10.678-5.671-20.969-13.804-29.102l-55.884-55.885-80.961-86.608 88.764 79.913-95.399-96.505 83.378 78.664-69.552-74.239 52.263 48.391-67.211-74.5L-32.851-86.429l-79.085-88.485 55.304 50.326-94.017-100.653L-22.993-99.604l-86.185-94.271 94.25 94.249C11.957-72.74 16.934-32.01 0 0" style="fill:#bad526;fill-opacity:1;fill-rule:evenodd;stroke:none" transform="translate(281.78 551.194)"/><path d="m0 0-12.862-12.863L6.866-34.13l-2.32-2.319-21.267 19.729-47.243-47.244 19.731-21.266-2.321-2.321-21.267 19.731-47.243-47.243 19.73-21.267-2.32-2.32-21.268 19.729-45.38-45.381c-.621-.621-1.254-1.23-1.889-1.833l16.333-17.604a151.624 151.624 0 0 0-3.342-1.889l-17.078 15.844c-15.123-12.72-33.574-20.085-53.142-22.253l10.919-11.715a149.223 149.223 0 0 0-4.118-.325l-12.409 11.563c-18.038-1.078-36.83 2.162-54.691 9.609 16.501-5.732 33.663-7.462 49.829-5.078l-7.989 7.444-16.925 15.775c-19.821-10.425-44.368-9.017-62.913 4.227 16.217-9.911 37.816-7.875 51.817 6.111l-26.412 24.615a82.817 82.817 0 0 0 13.678 1.314l18.651-20.013 13.8 13.802a81.975 81.975 0 0 0 6.383-2.957 82.177 82.177 0 0 1 11.126-4.754l-11.74-11.741a59.73 59.73 0 0 0-8.032-6.731l14.576-15.64 9.714-10.422c16.033 3.394 30.851 10.981 42.758 22.886l4.31 4.31-7.671 7.118-7.358 6.826a75.687 75.687 0 0 1 9.233 1.983l3.337-3.597 7.116-7.671 46.443 46.443-3.97 3.682 4.944 4.946 3.685-3.971 46.442 46.442-3.97 3.685 4.945 4.944 3.683-3.969 43.745 43.743A99.502 99.502 0 0 0 0 0" style="fill:#c27e00;fill-opacity:1;fill-rule:evenodd;stroke:none" transform="translate(484.076 319.72)"/><path d="m0 0-1.83 1.83c-35.402 35.402-93.152 35.402-128.553 0l-95.285-95.285c-27.207-27.205-67.191-33.413-101.37-15.744-27.715 14.33-62.747 9.898-85.938-13.291l-1.259-1.261 29.446-29.446c51.289-51.289 134.955-51.289 186.244 0L-51.126-5.779C-37.744 7.603-17.747 10.239-1.356.783z" style="fill:#94ab13;fill-opacity:1;fill-rule:evenodd;stroke:none" transform="translate(563.362 283.611)"/><path d="M0 0c-22.692-9.025-48.483-8.007-71.618 3.952-27.715 14.33-62.747 9.898-85.938-13.291l-1.259-1.261 29.446-29.446C-92.468-76.947-38.808-87.297 7.496-71.1c-47.162-3.649-80.704 16.194-109.753 43.739-11.318 10.732-5.12 23.235 10.152 20.045C-65.738-12.82-31.703-28.683.001-.003z" style="fill:#82970a;fill-opacity:1;fill-rule:evenodd;stroke:none" transform="translate(307.942 170.46)"/><path d="M0 0c-10.678-.99-20.969-5.668-29.102-13.801l-55.885-55.884-86.609-80.96 79.913 88.761-96.504-95.398 78.663 83.377-74.239-69.551 48.39 52.262-74.499-67.211L-86.43-32.849l-88.485-79.085 50.327 55.304-100.654-94.015L-99.605-22.992l-94.27-86.185 94.249 94.251C-72.739 11.96-32.011 16.936 0 0" style="fill:#bad526;fill-opacity:1;fill-rule:evenodd;stroke:none" transform="translate(540.46 292.513)"/><path d="M0 0c7.789-7.788 7.789-20.417 0-28.205a19.841 19.841 0 0 0-11.569-5.679c.46-.39.906-.802 1.34-1.234a21.799 21.799 0 0 0 4.47-6.459 21.007 21.007 0 0 0 10.461-5.708c8.247-8.247 8.247-21.617 0-29.863a21.023 21.023 0 0 0-12.73-6.07c.23-7.649-2.572-15.372-8.409-21.21-11.233-11.233-29.445-11.233-40.678 0-6.818 6.819-9.497 16.209-8.036 25.049-7.743-1.777-16.198.347-22.228 6.378-5.671 5.67-7.889 13.487-6.655 20.836a17.837 17.837 0 0 0-8.244 4.698c-7.009 7.008-7.009 18.369 0 25.376 4.557 4.559 10.96 6.151 16.805 4.779-.501 7.548 2.133 15.267 7.903 21.037 10.619 10.618 27.833 10.618 38.451 0a27.062 27.062 0 0 0 6.5-10.411A19.871 19.871 0 0 0-28.203 0C-20.415 7.789-7.787 7.789 0 0" style="fill:#663c12;fill-opacity:1;fill-rule:evenodd;stroke:none" transform="translate(575.121 589.03)"/><path d="M0 0a9.914 9.914 0 0 0-9.386 2.618c-3.874 3.874-3.874 10.154 0 14.028a9.908 9.908 0 0 0 8.078 2.849 19.372 19.372 0 0 0 5.504 11.009c7.598 7.597 19.916 7.597 27.513 0a19.565 19.565 0 0 0 2.107-2.493c6.724 3.856 15.448 2.913 21.19-2.83 6.741-6.741 6.869-17.588.386-24.487a13.423 13.423 0 0 0 6.388-3.58c4.947-4.946 5.249-12.779.908-18.078 5.733-6.333 5.544-16.117-.561-22.224-6.3-6.3-16.515-6.3-22.813 0a16.069 16.069 0 0 0-3.811 6.041c-5.226-1.54-11.108-.247-15.231 3.876a15.326 15.326 0 0 0-4.498 10.455A21.417 21.417 0 0 0 6.2-17.264C1.477-12.542-.59-6.168 0 0" style="fill:#8c5c2b;fill-opacity:1;fill-rule:evenodd;stroke:none" transform="translate(498.133 540.76)"/><path d="M0 0a7.795 7.795 0 0 0 0-11.025 7.795 7.795 0 0 0-11.025 0A7.797 7.797 0 0 0 0 0m39.379 31.203a3.03 3.03 0 1 0-4.286-4.286 3.032 3.032 0 0 0 4.286 4.286m-4.846 12.31a4.782 4.782 0 1 0-6.762-6.763 4.782 4.782 0 0 0 6.762 6.763M4.055 76.759a6.26 6.26 0 0 1-8.85 0 6.259 6.259 0 0 1 0-8.848 6.256 6.256 0 0 1 8.85 0 6.259 6.259 0 0 1 0 8.848m20.877 2.35a4.302 4.302 0 1 1-6.084-6.084 4.302 4.302 0 0 1 6.084 6.084M-48.416 63.97a5.18 5.18 0 0 0 0-7.327 5.182 5.182 0 1 0 0 7.327m37.781 15.451a8.063 8.063 0 0 0-1.104-12.331 14.082 14.082 0 0 0 5.407-3.379 14.088 14.088 0 0 0 3.47-5.678c6.298 5.481 15.855 5.225 21.848-.768 6.262-6.262 6.262-16.413 0-22.675a21.078 21.078 0 0 0-.508-.488c.489-.378.958-.792 1.408-1.24 5.726-5.727 5.726-15.012 0-20.739-5.727-5.727-15.013-5.727-20.74 0-.275.275-.536.56-.785.851-6.266-2.128-13.473-.696-18.467 4.299-3.974 3.974-5.693 9.349-5.158 14.535a8.425 8.425 0 0 0-7.931 13.645 10.593 10.593 0 0 0-2.264 3.936 13.71 13.71 0 0 0-3 2.277c-5.383 5.383-5.383 14.111 0 19.494 3.811 3.813 9.301 4.924 14.093 3.336a8.065 8.065 0 0 0 13.731 4.925" style="fill:#bf8b58;fill-opacity:1;fill-rule:evenodd;stroke:none" transform="translate(534.429 497.477)"/></g></svg>